<svg width="862" height="313" viewBox="0 0 862 313" fill="none" xmlns="http://www.w3.org/2000/svg">
<path d="M266.926 232.347C266.926 244.408 264.289 255.337 258.826 265.324C253.363 275.312 246.017 283.792 236.786 290.952C227.556 297.925 216.63 303.389 204.386 307.347C192.142 311.116 178.955 313 165.016 313H0V0H172.927C184.983 0 195.909 2.26129 205.705 7.16075C215.5 11.8718 223.788 17.9019 230.758 25.4395C237.54 32.9771 243.003 41.457 246.582 51.0674C250.161 60.6779 252.233 70.2884 252.233 79.8988C252.233 95.5394 247.9 109.861 239.235 123.052C230.57 136.243 218.326 146.042 202.314 152.637C222.281 157.913 237.917 167.712 249.596 182.034C261.275 196.355 266.926 213.126 266.926 232.536V232.347ZM44.0795 34.4846V139.069H154.844C162.755 139.069 169.913 137.75 176.318 134.924C182.723 132.097 188.563 128.328 193.272 123.617C197.981 118.906 201.749 113.441 204.574 107.034C207.4 100.816 208.719 94.0319 208.719 87.0596C208.719 80.0873 207.4 72.7381 204.763 66.3311C202.125 59.9241 198.546 54.2709 194.214 49.5599C189.881 44.8489 184.418 41.2685 178.014 38.6303C171.609 35.9922 164.827 34.6731 157.669 34.6731H44.0795V34.4846ZM222.281 225.375C222.281 218.214 220.963 211.43 218.137 204.835C215.312 198.24 211.544 192.398 206.835 187.498C202.125 182.599 196.474 178.453 189.881 175.627C183.288 172.8 176.13 171.293 168.406 171.293H44.0795V278.892H165.016C173.116 278.892 180.651 277.385 187.621 274.558C194.402 271.543 200.43 267.774 205.705 262.875C210.979 257.975 214.935 252.322 217.949 245.915C220.963 239.508 222.281 232.724 222.281 225.564V225.375Z" fill="#2F3233"/>
<path d="M336.06 74.0572V313H291.98V0H326.265L541.765 243.842V0.376881H585.844V313H548.546L336.06 74.0572Z" fill="#2F3233"/>
<path d="M632.371 313V0H861.999V35.2384H676.451V139.823H832.613V172.8H676.451V313H632.371Z" fill="#2F3233"/>
</svg>
